<svg xmlns="http://www.w3.org/2000/svg" xmlns:xlink="http://www.w3.org/1999/xlink" contentStyleType="text/css" data-diagram-type="CLASS" height="925px" preserveAspectRatio="none" style="width:1332px;height:925px;background:#FFFFFF;" version="1.1" viewBox="0 0 1332 925" width="1332px" zoomAndPan="magnify"><defs/><g><!--class Vector--><g class="entity" data-entity="Vector" data-source-line="5" data-uid="ent0002" id="entity_Vector"><rect fill="#F1F1F1" height="178.375" rx="2.5" ry="2.5" style="stroke:#181818;stroke-width:0.5;" width="209.292" x="642.5" y="740"/><ellipse cx="714.3818" cy="756" fill="#FF7700" rx="11" ry="11" style="stroke:#181818;stroke-width:1;"/><path d="M715.2256,762.75 L712.7725,762.75 L712.7725,752.5 L709.6318,752.5 L709.6318,750.3594 L718.3662,750.3594 L718.3662,752.5 L715.2256,752.5 L715.2256,762.75 Z " fill="#000000"/><text fill="#000000" font-family="sans-serif" font-size="14" lengthAdjust="spacing" textLength="45.6982" x="734.8818" y="760.8467">Vector</text><rect fill="#FFFFFF" height="15.9688" style="stroke:#181818;stroke-width:1;stroke-dasharray:2,2;" width="9.3301" x="845.4619" y="737"/><text fill="#000000" font-family="sans-serif" font-size="12" font-style="italic" lengthAdjust="spacing" textLength="7.3301" x="846.4619" y="749.1387">T</text><line style="stroke:#181818;stroke-width:0.5;" x1="643.5" x2="850.792" y1="772" y2="772"/><text fill="#000000" font-family="sans-serif" font-size="14" lengthAdjust="spacing" textLength="65.7549" x="648.5" y="788.9951">-data : T*</text><text fill="#000000" font-family="sans-serif" font-size="14" lengthAdjust="spacing" textLength="64.0664" x="648.5" y="805.292">-size : int</text><text fill="#000000" font-family="sans-serif" font-size="14" lengthAdjust="spacing" textLength="96.0244" x="648.5" y="821.5889">-capacity : int</text><line style="stroke:#181818;stroke-width:0.5;" x1="643.5" x2="850.792" y1="828.8906" y2="828.8906"/><text fill="#000000" font-family="sans-serif" font-size="14" lengthAdjust="spacing" textLength="68.3525" x="648.5" y="845.8857">+Vector()</text><text fill="#000000" font-family="sans-serif" font-size="14" lengthAdjust="spacing" textLength="80.083" x="648.5" y="862.1826">+~Vector()</text><text fill="#000000" font-family="sans-serif" font-size="14" lengthAdjust="spacing" textLength="193.8945" x="648.5" y="878.4795">+push_back(item : T) : void</text><text fill="#000000" font-family="sans-serif" font-size="14" lengthAdjust="spacing" textLength="197.292" x="648.5" y="894.7764">+operator[](index : int) : T&amp;</text><text fill="#000000" font-family="sans-serif" font-size="14" lengthAdjust="spacing" textLength="106.251" x="648.5" y="911.0732">+getSize() : int</text></g><!--class String--><g class="entity" data-entity="String" data-source-line="16" data-uid="ent0003" id="entity_String"><rect fill="#F1F1F1" height="162.0781" rx="2.5" ry="2.5" style="stroke:#181818;stroke-width:0.5;" width="267.9785" x="7" y="262"/><ellipse cx="115.8486" cy="278" fill="#ADD1B2" rx="11" ry="11" style="stroke:#181818;stroke-width:1;"/><path d="M118.8174,283.6406 Q118.2393,283.9375 117.5986,284.0781 Q116.958,284.2344 116.2549,284.2344 Q113.7549,284.2344 112.4268,282.5938 Q111.1143,280.9375 111.1143,277.8125 Q111.1143,274.6875 112.4268,273.0313 Q113.7549,271.375 116.2549,271.375 Q116.958,271.375 117.5986,271.5313 Q118.2549,271.6875 118.8174,271.9844 L118.8174,274.7031 Q118.1924,274.125 117.5986,273.8594 Q117.0049,273.5781 116.3799,273.5781 Q115.0361,273.5781 114.3486,274.6563 Q113.6611,275.7188 113.6611,277.8125 Q113.6611,279.9063 114.3486,280.9844 Q115.0361,282.0469 116.3799,282.0469 Q117.0049,282.0469 117.5986,281.7813 Q118.1924,281.5 118.8174,280.9219 L118.8174,283.6406 Z " fill="#000000"/><text fill="#000000" font-family="sans-serif" font-size="14" lengthAdjust="spacing" textLength="41.7813" x="136.3486" y="282.8467">String</text><line style="stroke:#181818;stroke-width:0.5;" x1="8" x2="273.9785" y1="294" y2="294"/><text fill="#000000" font-family="sans-serif" font-size="14" lengthAdjust="spacing" textLength="75.1133" x="13" y="310.9951">-str : char*</text><text fill="#000000" font-family="sans-serif" font-size="14" lengthAdjust="spacing" textLength="58.2969" x="13" y="327.292">-len : int</text><line style="stroke:#181818;stroke-width:0.5;" x1="8" x2="273.9785" y1="334.5938" y2="334.5938"/><text fill="#000000" font-family="sans-serif" font-size="14" lengthAdjust="spacing" textLength="165.6211" x="13" y="351.5889">+String(s : const char*)</text><text fill="#000000" font-family="sans-serif" font-size="14" lengthAdjust="spacing" textLength="159.5029" x="13" y="367.8857">+String(const String&amp;)</text><text fill="#000000" font-family="sans-serif" font-size="14" lengthAdjust="spacing" textLength="76.166" x="13" y="384.1826">+~String()</text><text fill="#000000" font-family="sans-serif" font-size="14" lengthAdjust="spacing" textLength="255.9785" x="13" y="400.4795">+operator=(const String&amp;) : String&amp;</text><text fill="#000000" font-family="sans-serif" font-size="14" lengthAdjust="spacing" textLength="169.4424" x="13" y="416.7764">+getCStr() : const char*</text></g><!--class FileSystemElement--><g class="entity" data-entity="FileSystemElement" data-source-line="28" data-uid="ent0004" id="entity_FileSystemElement"><rect fill="#F1F1F1" height="178.375" rx="2.5" ry="2.5" style="stroke:#181818;stroke-width:0.5;" width="404.916" x="456.5" y="7"/><ellipse cx="587.4014" cy="23" fill="#A9DCDF" rx="11" ry="11" style="stroke:#181818;stroke-width:1;"/><path d="M587.5107,18.3438 L586.3545,23.4219 L588.6826,23.4219 L587.5107,18.3438 Z M586.0264,16.1094 L589.0107,16.1094 L592.3701,28.5 L589.917,28.5 L589.1514,25.4375 L585.8701,25.4375 L585.1201,28.5 L582.6826,28.5 L586.0264,16.1094 Z " fill="#000000"/><text fill="#000000" font-family="sans-serif" font-size="14" font-style="italic" lengthAdjust="spacing" textLength="134.6133" x="607.9014" y="27.8467">FileSystemElement</text><line style="stroke:#181818;stroke-width:0.5;" x1="457.5" x2="860.416" y1="39" y2="39"/><text fill="#000000" font-family="sans-serif" font-size="14" lengthAdjust="spacing" textLength="100.1533" x="462.5" y="55.9951">-name : String</text><text fill="#000000" font-family="sans-serif" font-size="14" lengthAdjust="spacing" textLength="136.6982" x="462.5" y="72.292">-parent : Directory*</text><line style="stroke:#181818;stroke-width:0.5;" x1="457.5" x2="860.416" y1="79.5938" y2="79.5938"/><text fill="#000000" font-family="sans-serif" font-size="14" lengthAdjust="spacing" textLength="392.916" x="462.5" y="96.5889">+FileSystemElement(name : String, parent : Directory*)</text><text fill="#000000" font-family="sans-serif" font-size="14" lengthAdjust="spacing" textLength="218.21" x="462.5" y="112.8857">+virtual ~FileSystemElement()</text><text fill="#000000" font-family="sans-serif" font-size="14" lengthAdjust="spacing" textLength="142.3447" x="462.5" y="129.1826">+getName() : String</text><text fill="#000000" font-family="sans-serif" font-size="14" lengthAdjust="spacing" textLength="176.8457" x="462.5" y="145.4795">+getParent() : Directory*</text><text fill="#000000" font-family="sans-serif" font-size="14" lengthAdjust="spacing" textLength="177.543" x="462.5" y="161.7764">+virtual print() : void = 0</text><text fill="#000000" font-family="sans-serif" font-size="14" lengthAdjust="spacing" textLength="300.8496" x="462.5" y="178.0732">+virtual serialize(os : ostream&amp;) : void = 0</text></g><!--class File--><g class="entity" data-entity="File" data-source-line="39" data-uid="ent0005" id="entity_File"><rect fill="#F1F1F1" height="96.8906" rx="2.5" ry="2.5" style="stroke:#181818;stroke-width:0.5;" width="294.748" x="310.5" y="294.5"/><ellipse cx="441.4014" cy="310.5" fill="#ADD1B2" rx="11" ry="11" style="stroke:#181818;stroke-width:1;"/><path d="M444.3701,316.1406 Q443.792,316.4375 443.1514,316.5781 Q442.5107,316.7344 441.8076,316.7344 Q439.3076,316.7344 437.9795,315.0938 Q436.667,313.4375 436.667,310.3125 Q436.667,307.1875 437.9795,305.5313 Q439.3076,303.875 441.8076,303.875 Q442.5107,303.875 443.1514,304.0313 Q443.8076,304.1875 444.3701,304.4844 L444.3701,307.2031 Q443.7451,306.625 443.1514,306.3594 Q442.5576,306.0781 441.9326,306.0781 Q440.5889,306.0781 439.9014,307.1563 Q439.2139,308.2188 439.2139,310.3125 Q439.2139,312.4063 439.9014,313.4844 Q440.5889,314.5469 441.9326,314.5469 Q442.5576,314.5469 443.1514,314.2813 Q443.7451,314 444.3701,313.4219 L444.3701,316.1406 Z " fill="#000000"/><text fill="#000000" font-family="sans-serif" font-size="14" lengthAdjust="spacing" textLength="24.4453" x="461.9014" y="315.3467">File</text><line style="stroke:#181818;stroke-width:0.5;" x1="311.5" x2="604.248" y1="326.5" y2="326.5"/><line style="stroke:#181818;stroke-width:0.5;" x1="311.5" x2="604.248" y1="334.5" y2="334.5"/><text fill="#000000" font-family="sans-serif" font-size="14" lengthAdjust="spacing" textLength="282.748" x="316.5" y="351.4951">+File(name : String, parent : Directory*)</text><text fill="#000000" font-family="sans-serif" font-size="14" lengthAdjust="spacing" textLength="98.793" x="316.5" y="367.792">+print() : void</text><text fill="#000000" font-family="sans-serif" font-size="14" lengthAdjust="spacing" textLength="222.0996" x="316.5" y="384.0889">+serialize(os : ostream&amp;) : void</text></g><!--class Directory--><g class="entity" data-entity="Directory" data-source-line="45" data-uid="ent0006" id="entity_Directory"><rect fill="#F1F1F1" height="162.0781" rx="2.5" ry="2.5" style="stroke:#181818;stroke-width:0.5;" width="375.1729" x="559.5" y="501"/><ellipse cx="710.4204" cy="517" fill="#ADD1B2" rx="11" ry="11" style="stroke:#181818;stroke-width:1;"/><path d="M713.3892,522.6406 Q712.811,522.9375 712.1704,523.0781 Q711.5298,523.2344 710.8267,523.2344 Q708.3267,523.2344 706.9985,521.5938 Q705.686,519.9375 705.686,516.8125 Q705.686,513.6875 706.9985,512.0313 Q708.3267,510.375 710.8267,510.375 Q711.5298,510.375 712.1704,510.5313 Q712.8267,510.6875 713.3892,510.9844 L713.3892,513.7031 Q712.7642,513.125 712.1704,512.8594 Q711.5767,512.5781 710.9517,512.5781 Q709.6079,512.5781 708.9204,513.6563 Q708.2329,514.7188 708.2329,516.8125 Q708.2329,518.9063 708.9204,519.9844 Q709.6079,521.0469 710.9517,521.0469 Q711.5767,521.0469 712.1704,520.7813 Q712.7642,520.5 713.3892,519.9219 L713.3892,522.6406 Z " fill="#000000"/><text fill="#000000" font-family="sans-serif" font-size="14" lengthAdjust="spacing" textLength="64.832" x="730.9204" y="521.8467">Directory</text><line style="stroke:#181818;stroke-width:0.5;" x1="560.5" x2="933.6729" y1="533" y2="533"/><text fill="#000000" font-family="sans-serif" font-size="14" lengthAdjust="spacing" textLength="294.4648" x="565.5" y="549.9951">-elements : Vector&lt;FileSystemElement*&gt;</text><line style="stroke:#181818;stroke-width:0.5;" x1="560.5" x2="933.6729" y1="557.2969" y2="557.2969"/><text fill="#000000" font-family="sans-serif" font-size="14" lengthAdjust="spacing" textLength="323.1348" x="565.5" y="574.292">+Directory(name : String, parent : Directory*)</text><text fill="#000000" font-family="sans-serif" font-size="14" lengthAdjust="spacing" textLength="99.2168" x="565.5" y="590.5889">+~Directory()</text><text fill="#000000" font-family="sans-serif" font-size="14" lengthAdjust="spacing" textLength="363.1729" x="565.5" y="606.8857">+addElement(element : FileSystemElement*) : void</text><text fill="#000000" font-family="sans-serif" font-size="14" lengthAdjust="spacing" textLength="272.4326" x="565.5" y="623.1826">+removeElement(name : String) : void</text><text fill="#000000" font-family="sans-serif" font-size="14" lengthAdjust="spacing" textLength="98.793" x="565.5" y="639.4795">+print() : void</text><text fill="#000000" font-family="sans-serif" font-size="14" lengthAdjust="spacing" textLength="222.0996" x="565.5" y="655.7764">+serialize(os : ostream&amp;) : void</text></g><!--class Link--><g class="entity" data-entity="Link" data-source-line="55" data-uid="ent0007" id="entity_Link"><rect fill="#F1F1F1" height="113.1875" rx="2.5" ry="2.5" style="stroke:#181818;stroke-width:0.5;" width="436.1357" x="889" y="286.5"/><ellipse cx="1088.4829" cy="302.5" fill="#ADD1B2" rx="11" ry="11" style="stroke:#181818;stroke-width:1;"/><path d="M1091.4517,308.1406 Q1090.8735,308.4375 1090.2329,308.5781 Q1089.5923,308.7344 1088.8892,308.7344 Q1086.3892,308.7344 1085.061,307.0938 Q1083.7485,305.4375 1083.7485,302.3125 Q1083.7485,299.1875 1085.061,297.5313 Q1086.3892,295.875 1088.8892,295.875 Q1089.5923,295.875 1090.2329,296.0313 Q1090.8892,296.1875 1091.4517,296.4844 L1091.4517,299.2031 Q1090.8267,298.625 1090.2329,298.3594 Q1089.6392,298.0781 1089.0142,298.0781 Q1087.6704,298.0781 1086.9829,299.1563 Q1086.2954,300.2188 1086.2954,302.3125 Q1086.2954,304.4063 1086.9829,305.4844 Q1087.6704,306.5469 1089.0142,306.5469 Q1089.6392,306.5469 1090.2329,306.2813 Q1090.8267,306 1091.4517,305.4219 L1091.4517,308.1406 Z " fill="#000000"/><text fill="#000000" font-family="sans-serif" font-size="14" lengthAdjust="spacing" textLength="28.6699" x="1108.9829" y="307.3467">Link</text><line style="stroke:#181818;stroke-width:0.5;" x1="890" x2="1324.1357" y1="318.5" y2="318.5"/><text fill="#000000" font-family="sans-serif" font-size="14" lengthAdjust="spacing" textLength="133.3145" x="895" y="335.4951">-target : Directory*</text><line style="stroke:#181818;stroke-width:0.5;" x1="890" x2="1324.1357" y1="342.7969" y2="342.7969"/><text fill="#000000" font-family="sans-serif" font-size="14" lengthAdjust="spacing" textLength="424.1357" x="895" y="359.792">+Link(name : String, parent : Directory*, target : Directory*)</text><text fill="#000000" font-family="sans-serif" font-size="14" lengthAdjust="spacing" textLength="98.793" x="895" y="376.0889">+print() : void</text><text fill="#000000" font-family="sans-serif" font-size="14" lengthAdjust="spacing" textLength="222.0996" x="895" y="392.3857">+serialize(os : ostream&amp;) : void</text></g><!--reverse link FileSystemElement to File--><g class="link" data-entity-1="FileSystemElement" data-entity-2="File" data-source-line="65" data-uid="lnk8" id="link_FileSystemElement_File"><path codeLine="65" d="M575.3035,199.0163 C545.0235,235.9263 522.45,263.44 497,294.46" fill="none" id="FileSystemElement-backto-File" style="stroke:#181818;stroke-width:1;"/><polygon fill="none" points="586.72,185.1,570.6647,195.2108,579.9422,202.8218,586.72,185.1" style="stroke:#181818;stroke-width:1;"/></g><!--reverse link FileSystemElement to Directory--><g class="link" data-entity-1="FileSystemElement" data-entity-2="Directory" data-source-line="66" data-uid="lnk9" id="link_FileSystemElement_Directory"><path codeLine="66" d="M670.0164,203.1956 C677.5064,269.3056 687.58,343.86 704,424 C709.16,449.19 716.09,476.32 722.87,500.81" fill="none" id="FileSystemElement-backto-Directory" style="stroke:#181818;stroke-width:1;"/><polygon fill="none" points="667.99,185.31,664.0545,203.871,675.9782,202.5201,667.99,185.31" style="stroke:#181818;stroke-width:1;"/></g><!--link FileSystemElement to Directory--><g class="link" data-entity-1="FileSystemElement" data-entity-2="Directory" data-source-line="76" data-uid="lnk14" id="link_FileSystemElement_Directory"><path codeLine="76" d="M690.36,185.19 C693.48,195.19 696.43,205.27 699,215 C724.47,311.51 736.2556,420.0772 741.9456,494.9972" fill="none" id="FileSystemElement-to-Directory" style="stroke:#181818;stroke-width:1;"/><polygon fill="#181818" points="742.4,500.98,745.7069,491.7029,742.0214,495.9944,737.7299,492.3088,742.4,500.98" style="stroke:#181818;stroke-width:1;"/><text fill="#000000" font-family="sans-serif" font-size="13" lengthAdjust="spacing" textLength="105.4727" x="737" y="347.5669">parent directory</text></g><!--reverse link FileSystemElement to Link--><g class="link" data-entity-1="FileSystemElement" data-entity-2="Link" data-source-line="67" data-uid="lnk10" id="link_FileSystemElement_Link"><path codeLine="67" d="M835.902,193.7379 C897.732,227.5579 950.73,256.54 1005.45,286.47" fill="none" id="FileSystemElement-backto-Link" style="stroke:#181818;stroke-width:1;"/><polygon fill="none" points="820.11,185.1,833.0226,199.0019,838.7813,188.474,820.11,185.1" style="stroke:#181818;stroke-width:1;"/></g><!--reverse link FileSystemElement to String--><g class="link" data-entity-1="FileSystemElement" data-entity-2="String" data-source-line="70" data-uid="lnk11" id="link_FileSystemElement_String"><path codeLine="70" d="M446.6307,190.0927 C392.8507,214.3427 345.93,236.17 293,262 C287.1,264.88 281.1,267.85 275.05,270.88" fill="none" id="FileSystemElement-backto-String" style="stroke:#181818;stroke-width:1;"/><polygon fill="#181818" points="457.57,185.16,450.4561,183.9799,446.6307,190.0927,453.7446,191.2728,457.57,185.16" style="stroke:#181818;stroke-width:1;"/><text fill="#000000" font-family="sans-serif" font-size="13" lengthAdjust="spacing" textLength="36.8672" x="384" y="228.0669">name</text></g><!--reverse link Directory to Vector--><g class="link" data-entity-1="Directory" data-entity-2="Vector" data-source-line="71" data-uid="lnk12" id="link_Directory_Vector"><path codeLine="71" d="M747,675.22 C747,699.78 747,714.93 747,739.98" fill="none" id="Directory-backto-Vector" style="stroke:#181818;stroke-width:1;"/><polygon fill="none" points="747,663.22,743,669.22,747,675.22,751,669.22,747,663.22" style="stroke:#181818;stroke-width:1;"/><text fill="#000000" font-family="sans-serif" font-size="13" lengthAdjust="spacing" textLength="129.0161" x="748" y="706.0669">contained elements</text></g><!--link Link to Directory--><g class="link" data-entity-1="Link" data-entity-2="Directory" data-source-line="75" data-uid="lnk13" id="link_Link_Directory"><path codeLine="75" d="M1022.6,399.57 C976.77,429.73 924.3114,464.2707 873.7314,497.5707" fill="none" id="Link-to-Directory" style="stroke:#181818;stroke-width:1;"/><polygon fill="#181818" points="868.72,500.87,878.4367,499.2619,872.8962,498.1206,874.0376,492.58,868.72,500.87" style="stroke:#181818;stroke-width:1;"/><text fill="#000000" font-family="sans-serif" font-size="13" lengthAdjust="spacing" textLength="39.7554" x="938" y="467.0669">target</text></g><!--SRC=[fLNFYzD05BxdhtX4Q9FQBhqjb6wXw1PaHOHMBo8oJORkc1yJPgR5Lkt_uCLxZtlm97Zm6lo_V9EPf4sJHPVj8NJU-xxtllTZ4XcnD2E29134HCgfKe8jrug-27WwPpiAGyVfmc0mW3bTvNSXbpkL7-8jZy1xerZCrDRNRiSf-E2-fO7YOhoOk40ac1ECn-0j-azciylBuT27oGG-Eu2_0OH44HZ1ecVFKkSS0KkLDGGa8m5cEJ4-jM4ztnxtP-TiBMy_B4aGUKpHH8VtyR7XBBG0db51aF7klSVIa7uomJLeqR6G5LMwVi-tYR-M5SwnG-cgAa0gWOZWbeYoX9YcDR66u4aDuwbK1kpNlSPZ3fsgBklqpsHVdS4nilrx5FyCBONuavow23FCMNxu60kQXd97XQvX7Qdyjo1cb6I95X8einCmOp6TRoMsyZgc2KrLLNnA4bebjpRS9WqPmNCcYh5iUrPL8uvNu_VRg6Nf6oRKciImRmRnZqM_mdYUNrTKE5uNaGjNGrOPEaEAWUXDWIjS_Jf0Ki58h9U2ws5oR18bIQV6gDP4wxHzCfK_eDYw4clyH_PZvYfUDIPgEgLfzdeskjYRs3GL-m5wzqTIQI9XMCx7PaTcC-jPZO8cV4DRj-CC-RWMlMHfL7L74O4RqhOP6lOVRUYtXNZiBCqzlI5P87cCbpuoLxCB-NUH_uhYFz_2_4uwpRiv_gBlDvhlyrKQxmFeidMc6vvaV9V_25Z-4p0PJ5ShWL-1WpQqa7lwAs7UZYDmTTzSvxYC7BtsSu1UV2ifmb8QLilfEbthlhXeUUKWPu4tR3Q_xhbQt5JA7KSXXPZ8AIOw64nEjXyPPYvkYzO6rCurB6tkNm00]--></g></svg>